<?xml version="1.0" encoding="UTF-8"?>
<svg width="13px" height="14px" viewBox="0 0 13 14" version="1.1" xmlns="http://www.w3.org/2000/svg" xmlns:xlink="http://www.w3.org/1999/xlink">
    <g id="Page-1" stroke="none" stroke-width="1" fill-rule="evenodd">
        <g id="cart">
            <path d="M11.955,5.14 L9.94,5.14 L10.244,6.422 L11.954,6.238 L11.954,5.141 L11.955,5.14 Z M12.012,12.741 C12.012,13.431 11.499,14 10.834,14 C10.169,14 9.637,13.431 9.637,12.741 C9.637,12.029 10.169,11.461 10.834,11.461 C11.499,11.461 12.012,12.029 12.012,12.741 Z M11.955,3.028 L9.505,3.028 L9.788,4.41 L11.955,4.41 L11.955,3.028 Z M9.618,6.523 L9.238,5.141 L7.433,5.141 L7.908,6.706 L9.618,6.523 Z M6.844,3.028 L7.243,4.41 L9.123,4.41 L8.82,3.028 L6.844,3.028 Z M7.243,6.787 L6.749,5.141 L4.944,5.141 L5.724,6.95 L7.243,6.787 Z M4.66,4.41 L6.578,4.41 L6.161,3.028 L4.071,3.028 L4.66,4.41 Z M3.976,12.741 C3.976,13.431 3.463,14 2.779,14 C2.133,14 1.601,13.431 1.601,12.741 C1.601,12.029 2.133,11.461 2.779,11.461 C3.463,11.461 3.976,12.029 3.976,12.741 Z M12.164,1.89 C12.734,1.89 13,2.255 13,2.703 L13,6.503 C13,6.929 12.696,7.275 12.297,7.315 L4.621,8.23 C3.995,8.31 3.918,9.185 4.66,9.185 L11.936,9.185 C12.771,9.185 12.771,10.505 11.936,10.505 L4.507,10.505 C2.836,10.505 2.209,8.535 3.519,7.498 L4.184,6.97 L1.829,1.463 L0.67,1.463 C-0.223,1.463 -0.223,-8.8817842e-16 0.67,-8.8817842e-16 L2.019,-8.8817842e-16 C2.702,-8.8817842e-16 2.893,0.346 3.101,0.874 L3.577,1.89 L12.164,1.89 Z" id="Shape"></path>
        </g>
    </g>
</svg>
