<?xml version="1.0" encoding="UTF-8"?>
<svg width="41px" height="33px" viewBox="0 0 41 33" version="1.1" xmlns="http://www.w3.org/2000/svg" xmlns:xlink="http://www.w3.org/1999/xlink">
    <!-- Generator: Sketch 51.2 (57519) - http://www.bohemiancoding.com/sketch -->
    <title>logo</title>
    <desc>Created with Sketch.</desc>
    <defs></defs>
    <g id="Page-1" stroke="none" stroke-width="1" fill="none" fill-rule="evenodd">
        <g id="logo" fill="#383455">
            <path d="M32.444,15.952 L33.254,16.762 L34.065,15.952 L33.255,15.142 L32.445,15.952 L32.444,15.952 Z M7.054,15.952 L7.864,16.762 L8.675,15.952 L7.865,15.142 L7.055,15.952 L7.054,15.952 Z M29.794,10.972 C29.49,10.972 29.04,11.156 29.04,11.542 C29.04,11.927 29.778,12.339 30.454,12.339 C32.582,12.339 33.69,10.639 33.69,9.036 C33.69,7.393 32.394,5.376 29.559,5.452 C26.279,5.542 23.907,8.037 23.781,12.5 C23.781,12.614 23.773,12.929 23.755,13.385 L22.251,13.453 C22.351,10.687 22.511,6.033 22.517,5.677 C22.734,5.687 23.264,5.689 23.646,5.698 C25.81,5.739 27.555,3.954 27.555,2.064 C27.555,0.647 26.95,0 26.459,0 C25.753,0 26.025,2.043 23.376,2.043 C20.541,2.043 17.966,0.718 14.722,0.718 C9.345,0.718 7.038,4.591 7.038,8.125 C7.038,11.662 9.604,13.882 12.353,13.788 C15.103,13.694 17.121,11.931 17.121,9.681 C17.121,7.486 15.551,7.021 15.139,7.035 C14.817,7.045 14.615,7.25 14.599,8.128 C14.567,9.782 13.296,10.673 12.149,10.673 C11.005,10.673 9.761,10.016 9.761,8.188 C9.761,6.358 11.131,4.53 14.411,4.53 C15.809,4.53 17.767,4.923 18.783,5.23 C18.771,5.795 18.544,10.689 18.405,13.645 C18.235,13.655 18.113,13.664 18.053,13.67 C17.184,13.754 16.229,14.56 16.183,15.418 C16.151,15.991 16.643,16.181 17.499,16.213 C17.583,16.215 17.861,16.207 18.273,16.191 C17.875,20.994 16.417,21.179 15.753,21.179 C15.073,21.179 14.113,20.562 14.113,19.532 C14.113,17.486 15.633,17.229 15.633,16.681 C15.633,16.133 14.715,15.974 14.267,15.974 C12.439,15.974 10.493,17.469 10.493,19.616 C10.493,21.761 12.313,23.796 15.713,23.796 C18.991,23.796 21.727,20.91 22.139,16.01 L23.644,15.934 C23.485,19.404 23.246,24.223 23.246,24.223 C23.025,29.328 21.526,29.559 20.846,29.578 C20.167,29.598 19.191,29.007 19.163,27.977 C19.108,25.93 20.621,25.633 20.606,25.085 C20.592,24.538 19.666,24.403 19.22,24.415 C17.39,24.465 15.49,26.013 15.548,28.16 C15.608,30.304 17.478,32.287 20.88,32.195 C24.279,32.102 27.016,28.918 27.112,23.665 C27.12,23.25 27.276,19.12 27.399,15.732 C27.889,15.705 28.203,15.685 28.245,15.682 C29.21,15.558 29.945,14.808 29.987,14.022 C30.024,13.337 29.52,13.15 28.645,13.17 C28.587,13.171 28.152,13.189 27.489,13.217 C27.529,12.133 27.552,11.378 27.552,11.259 C27.492,9.046 28.799,8.052 29.598,8.029 C30.422,8.009 31.052,8.585 31.052,9.382 C31.052,10.178 30.656,10.972 29.793,10.972 L29.794,10.972 Z M39.224,15.586 L38.166,15.586 L38.166,14.47 L39.224,14.47 C39.517,14.47 39.767,14.714 39.767,15.013 C39.767,15.314 39.517,15.585 39.224,15.585 L39.224,15.586 Z M39.818,16.43 C40.439,16.179 40.875,15.651 40.875,14.994 C40.875,14.143 40.175,13.449 39.317,13.449 L37.18,13.449 C37.105116,13.4495446 37.0445446,13.510116 37.044,13.585 L37.044,18.317 C37.044,18.388 37.102,18.453 37.18,18.453 L38.03,18.453 C38.1042269,18.4509079 38.1639079,18.3912269 38.166,18.317 L38.166,16.494 L38.66,16.494 L39.61,18.388 C39.624,18.418 39.667,18.453 39.724,18.453 L40.674,18.453 C40.796,18.453 40.847,18.338 40.796,18.245 L39.818,16.43 Z M2.616,14.458 C2.966,14.458 3.316,14.586 3.581,14.822 C3.631,14.872 3.708,14.872 3.759,14.822 L4.317,14.242 C4.34494036,14.2157521 4.36019609,14.1787247 4.35885516,14.1404126 C4.35751424,14.1021005 4.33970709,14.0662302 4.31,14.042 C3.823,13.599 3.295,13.379 2.58,13.379 C1.15,13.379 0,14.529 0,15.959 C0,17.389 1.15,18.523 2.58,18.523 C3.217,18.523 3.831,18.303 4.317,17.831 C4.367,17.781 4.374,17.687 4.324,17.637 L3.766,17.045 C3.724,16.995 3.631,16.995 3.581,17.038 C3.323,17.258 2.959,17.38 2.623,17.38 C1.815,17.38 1.215,16.723 1.215,15.93 C1.215,15.129 1.808,14.458 2.616,14.458 Z" id="Shape"></path>
        </g>
    </g>
</svg>
